name rise34.3697peak60.0498fall86.3158.mot
datacolumns 19
datarows 27
range 23.08658100000000 23.12992100000000
endheader
time	ground_force1_vx	ground_force1_vy	ground_force1_vz	ground_force1_px	ground_force1_py	ground_force1_pz	ground_force2_vx	ground_force2_vy	ground_force2_vz	ground_force2_px	ground_force2_py	ground_force2_pz	ground_torque1_x	ground_torque1_y	ground_torque1_z	ground_torque2_x	ground_torque2_y	ground_torque2_z	
23.08658100000000	3.29981300000000	691.22837900000002	44.68098500000000	0.25431300000000	0.00000000000000	0.14042400000000	0.00000000000000	0.00000000000000	0.00000000000000	0.00000000000000	0.00000000000000	0.00000000000000	0.00000000000000	20.28582600000000	0.00000000000000	0.00000000000000	0.00000000000000	0.00000000000000	
23.08825100000000	2.75891700000000	691.42585299999996	44.70755000000000	0.25303400000000	0.00000000000000	0.14047300000000	0.00000000000000	0.00000000000000	0.00000000000000	0.00000000000000	0.00000000000000	0.00000000000000	0.00000000000000	20.37843200000000	0.00000000000000	0.00000000000000	0.00000000000000	0.00000000000000	
23.08991500000000	2.20605400000000	691.65851499999997	44.73690100000000	0.25176300000000	0.00000000000000	0.14052100000000	0.00000000000000	0.00000000000000	0.00000000000000	0.00000000000000	0.00000000000000	0.00000000000000	0.00000000000000	20.47717100000000	0.00000000000000	0.00000000000000	0.00000000000000	0.00000000000000	
23.09157500000000	1.64130900000000	691.92694600000004	44.76892300000000	0.25050200000000	0.00000000000000	0.14056900000000	0.00000000000000	0.00000000000000	0.00000000000000	0.00000000000000	0.00000000000000	0.00000000000000	0.00000000000000	20.58192800000000	0.00000000000000	0.00000000000000	0.00000000000000	0.00000000000000	
23.09324100000000	1.06479900000000	692.23181099999999	44.80351700000000	0.24925100000000	0.00000000000000	0.14061700000000	0.00000000000000	0.00000000000000	0.00000000000000	0.00000000000000	0.00000000000000	0.00000000000000	0.00000000000000	20.69258700000000	0.00000000000000	0.00000000000000	0.00000000000000	0.00000000000000	
23.09492100000000	0.47667900000000	692.57385699999998	44.84059700000000	0.24801000000000	0.00000000000000	0.14066400000000	0.00000000000000	0.00000000000000	0.00000000000000	0.00000000000000	0.00000000000000	0.00000000000000	0.00000000000000	20.80902700000000	0.00000000000000	0.00000000000000	0.00000000000000	0.00000000000000	
23.09658300000000	-0.12286900000000	692.95390799999996	44.88009200000000	0.24678000000000	0.00000000000000	0.14070900000000	0.00000000000000	0.00000000000000	0.00000000000000	0.00000000000000	0.00000000000000	0.00000000000000	0.00000000000000	20.93112500000000	0.00000000000000	0.00000000000000	0.00000000000000	0.00000000000000	
23.09824900000000	-0.73362500000000	693.37286400000005	44.92194800000000	0.24556200000000	0.00000000000000	0.14075500000000	0.00000000000000	0.00000000000000	0.00000000000000	0.00000000000000	0.00000000000000	0.00000000000000	0.00000000000000	21.05875100000000	0.00000000000000	0.00000000000000	0.00000000000000	0.00000000000000	
23.09992000000000	-1.35534300000000	693.83169299999997	44.96612500000000	0.24435600000000	0.00000000000000	0.14079900000000	0.00000000000000	0.00000000000000	0.00000000000000	0.00000000000000	0.00000000000000	0.00000000000000	0.00000000000000	21.19177600000000	0.00000000000000	0.00000000000000	0.00000000000000	0.00000000000000	
23.10157900000000	-1.98774300000000	694.33142899999996	45.01259800000000	0.24316300000000	0.00000000000000	0.14084200000000	0.00000000000000	0.00000000000000	0.00000000000000	0.00000000000000	0.00000000000000	0.00000000000000	0.00000000000000	21.33006300000000	0.00000000000000	0.00000000000000	0.00000000000000	0.00000000000000	
23.10324400000000	-2.63051900000000	694.87316599999997	45.06135500000000	0.24198200000000	0.00000000000000	0.14088400000000	0.00000000000000	0.00000000000000	0.00000000000000	0.00000000000000	0.00000000000000	0.00000000000000	0.00000000000000	21.47347600000000	0.00000000000000	0.00000000000000	0.00000000000000	0.00000000000000	
23.10492200000000	-3.28333700000000	695.45804999999996	45.11240100000000	0.24081400000000	0.00000000000000	0.14092600000000	0.00000000000000	0.00000000000000	0.00000000000000	0.00000000000000	0.00000000000000	0.00000000000000	0.00000000000000	21.62187100000000	0.00000000000000	0.00000000000000	0.00000000000000	0.00000000000000	
23.10657700000000	-3.94583600000000	696.08727399999998	45.16575400000000	0.23966100000000	0.00000000000000	0.14096600000000	0.00000000000000	0.00000000000000	0.00000000000000	0.00000000000000	0.00000000000000	0.00000000000000	0.00000000000000	21.77510400000000	0.00000000000000	0.00000000000000	0.00000000000000	0.00000000000000	
23.10824200000000	-4.61763200000000	696.76206999999999	45.22144600000000	0.23852100000000	0.00000000000000	0.14100500000000	0.00000000000000	0.00000000000000	0.00000000000000	0.00000000000000	0.00000000000000	0.00000000000000	0.00000000000000	21.93302400000000	0.00000000000000	0.00000000000000	0.00000000000000	0.00000000000000	
23.10990900000000	-5.29831700000000	697.48370299999999	45.27952300000000	0.23739500000000	0.00000000000000	0.14104300000000	0.00000000000000	0.00000000000000	0.00000000000000	0.00000000000000	0.00000000000000	0.00000000000000	0.00000000000000	22.09548000000000	0.00000000000000	0.00000000000000	0.00000000000000	0.00000000000000	
23.11157700000000	-5.98746000000000	698.25346100000002	45.34004600000000	0.23628400000000	0.00000000000000	0.14108000000000	0.00000000000000	0.00000000000000	0.00000000000000	0.00000000000000	0.00000000000000	0.00000000000000	0.00000000000000	22.26231600000000	0.00000000000000	0.00000000000000	0.00000000000000	0.00000000000000	
23.11324800000000	-6.68461200000000	699.07264699999996	45.40308600000000	0.23518800000000	0.00000000000000	0.14111500000000	0.00000000000000	0.00000000000000	0.00000000000000	0.00000000000000	0.00000000000000	0.00000000000000	0.00000000000000	22.43337100000000	0.00000000000000	0.00000000000000	0.00000000000000	0.00000000000000	
23.11490900000000	-7.38930400000000	699.94257200000004	45.46873000000000	0.23410700000000	0.00000000000000	0.14115000000000	0.00000000000000	0.00000000000000	0.00000000000000	0.00000000000000	0.00000000000000	0.00000000000000	0.00000000000000	22.60848300000000	0.00000000000000	0.00000000000000	0.00000000000000	0.00000000000000	
23.11657700000000	-8.10105000000000	700.86454300000003	45.53707700000000	0.23304200000000	0.00000000000000	0.14118200000000	0.00000000000000	0.00000000000000	0.00000000000000	0.00000000000000	0.00000000000000	0.00000000000000	0.00000000000000	22.78748700000000	0.00000000000000	0.00000000000000	0.00000000000000	0.00000000000000	
23.11824200000000	-8.81934900000000	701.83985600000005	45.60823500000000	0.23199100000000	0.00000000000000	0.14121400000000	0.00000000000000	0.00000000000000	0.00000000000000	0.00000000000000	0.00000000000000	0.00000000000000	0.00000000000000	22.97021200000000	0.00000000000000	0.00000000000000	0.00000000000000	0.00000000000000	
23.11992400000000	-9.54368400000000	702.86978599999998	45.68232800000000	0.23095600000000	0.00000000000000	0.14124400000000	0.00000000000000	0.00000000000000	0.00000000000000	0.00000000000000	0.00000000000000	0.00000000000000	0.00000000000000	23.15648800000000	0.00000000000000	0.00000000000000	0.00000000000000	0.00000000000000	
23.12157900000000	-10.27352900000000	703.95557599999995	45.75948800000000	0.22993600000000	0.00000000000000	0.14127300000000	0.00000000000000	0.00000000000000	0.00000000000000	0.00000000000000	0.00000000000000	0.00000000000000	0.00000000000000	23.34613800000000	0.00000000000000	0.00000000000000	0.00000000000000	0.00000000000000	
23.12324600000000	-11.00834300000000	705.09842800000001	45.83985900000000	0.22893200000000	0.00000000000000	0.14130100000000	0.00000000000000	0.00000000000000	0.00000000000000	0.00000000000000	0.00000000000000	0.00000000000000	0.00000000000000	23.53898600000000	0.00000000000000	0.00000000000000	0.00000000000000	0.00000000000000	
23.12492300000000	-11.74757700000000	706.29949299999998	45.92359500000000	0.22794300000000	0.00000000000000	0.14132700000000	0.00000000000000	0.00000000000000	0.00000000000000	0.00000000000000	0.00000000000000	0.00000000000000	0.00000000000000	23.73485200000000	0.00000000000000	0.00000000000000	0.00000000000000	0.00000000000000	
23.12658100000000	-12.49067400000000	707.55985899999996	46.01086000000000	0.22696900000000	0.00000000000000	0.14135200000000	0.00000000000000	0.00000000000000	0.00000000000000	0.00000000000000	0.00000000000000	0.00000000000000	0.00000000000000	23.93355200000000	0.00000000000000	0.00000000000000	0.00000000000000	0.00000000000000	
23.12825000000000	-13.23707000000000	708.88054299999999	46.10182500000000	0.22601000000000	0.00000000000000	0.14137600000000	0.00000000000000	0.00000000000000	0.00000000000000	0.00000000000000	0.00000000000000	0.00000000000000	0.00000000000000	24.13490100000000	0.00000000000000	0.00000000000000	0.00000000000000	0.00000000000000	
23.12992100000000	-13.98619400000000	710.26248199999998	46.19667200000000	0.22506700000000	0.00000000000000	0.14139800000000	0.00000000000000	0.00000000000000	0.00000000000000	0.00000000000000	0.00000000000000	0.00000000000000	0.00000000000000	24.33871200000000	0.00000000000000	0.00000000000000	0.00000000000000	0.00000000000000	
